PathFileType	4	(X/Y/Z)	Patient4_TMGait_0pt5_02_left_37.trc.trc
DataRate	CameraRate	NumFrames	NumMarkers	Units	OrigDataRate	OrigDataStartFrame	OrigNumFrames
75.675675675676	75.675675675676	4	33	mm	75.675675675676	18	       141
Frame#	Time	Sacral			L.Shoulder			Chest			R.Shoulder			Neck			R.ASIS			L.ASIS			R.Thigh.Superior			R.Thigh.Lateral			R.Thigh.Inferior			R.Patella			L.Thigh.Superior			L.Thigh.Lateral			L.Thigh.Inferior			L.Patella			L.Shank.Superior			L.Shank.Lateral			L.Shank.Inferior			R.Shank.Superior			R.Shank.Lateral			R.Shank.Inferior			R.Heel			R.Midfoot.Superior			R.Midfoot.Lateral			R.Toe			L.Heel			L.Midfoot.Lateral			L.Midfoot.Superior			L.Toe			L.Elbow			L.Wrist			R.Elbow			R.Wrist			
		X1	Y1	Z1	X2	Y2	Z2	X3	Y3	Z3	X4	Y4	Z4	X5	Y5	Z5	X6	Y6	Z6	X7	Y7	Z7	X8	Y8	Z8	X9	Y9	Z9	X10	Y10	Z10	X11	Y11	Z11	X12	Y12	Z12	X13	Y13	Z13	X14	Y14	Z14	X15	Y15	Z15	X16	Y16	Z16	X17	Y17	Z17	X18	Y18	Z18	X19	Y19	Z19	X20	Y20	Z20	X21	Y21	Z21	X22	Y22	Z22	X23	Y23	Z23	X24	Y24	Z24	X25	Y25	Z25	X26	Y26	Z26	X27	Y27	Z27	X28	Y28	Z28	X29	Y29	Z29	X30	Y30	Z30	X31	Y31	Z31	X32	Y32	Z32	X33	Y33	Z33	

18	47.854642857143	742.331989720964	1009.536653183983	531.560789840493	904.234176106796	1443.123438997449	357.487888692819	1024.593504885204	1360.299161988271	498.870281029198	966.579870165733	1423.616449291601	686.888593417669	925.451261763516	1494.591349035289	511.235936741105	975.618645229716	939.334837812575	626.345776561500	939.143731963328	963.669416378490	353.418845641938	980.946748794222	730.539964994846	597.960860936330	885.002921332626	632.938036693507	661.485264493155	947.575415058809	571.224172366432	579.691787935721	933.236653350785	485.748295708729	584.930476391758	1015.531790307265	779.800865477991	379.140612283844	967.139155002615	651.442216636391	301.152162530904	1071.563749410455	592.343507562697	359.950678020768	1099.934712493070	527.341796935937	355.583651593065	1083.750779393789	455.842781053374	345.933645955292	1017.653161851078	326.278099992654	294.508676203737	1105.745300623441	227.406851937111	347.946620964192	898.992806847346	399.330619501376	590.599515356173	818.824081286400	300.394621696499	649.310351325214	855.013490512249	203.987990552305	584.382068330936	712.864123705188	42.574780255716	548.640905321060	884.897373648759	97.540428786563	583.997179244935	796.658322072412	36.214653450764	623.287526724098	1004.397536271250	45.955047863703	610.072213129018	1024.581750461474	45.750117559859	387.909595157834	1095.706075363369	52.083914963332	305.578757864052	1165.453907080081	130.817722466718	323.755479730548	1298.317472875617	104.762066592813	293.545931426322	764.434985060055	1119.373001609509	246.596229432923	720.015362175109	864.964277595756	238.128519374453	1103.112952562518	1108.798846354697	783.648409092171	1347.510108176075	1129.789406233107	711.469666722315	
19	47.867857142857	743.242406571851	1008.346165738418	529.855178348405	904.108706511661	1441.943635697407	355.033906921983	1024.538099314458	1359.536581073618	496.564697359407	966.319932011794	1423.115335790166	684.400781786945	925.157478716607	1493.622197418543	508.689202568087	976.255639514844	938.484884494447	625.024508017813	940.149310860093	962.320788039971	351.938514973860	980.445103062386	729.282606767697	596.646405027381	883.805339481294	632.218166803487	660.373775748003	945.669565636075	569.970526726527	578.452246807249	930.583324900939	484.419777810332	583.573844483158	1016.939408366782	778.650418014765	378.649906218641	968.216805514089	649.619816539532	301.696836418094	1072.564220640867	590.950609732662	360.611389753890	1100.369445375582	525.372132919231	356.778538910384	1083.604436275951	453.373327219923	347.411797877310	1016.175248234767	324.337057212071	296.615868229634	1103.021063012545	224.791388967222	350.619835559494	895.657235780208	398.269507072894	589.520860724753	814.917982342571	300.079520487678	648.818127645195	849.661460457410	203.301915714467	583.735928927724	706.210217412915	42.502023335011	548.653616216248	878.214413171974	97.345931770756	583.861907917550	789.967721179139	36.170875918326	623.312261467689	997.781124231273	45.652912101106	610.111399430592	1019.280713403527	45.269128753156	391.173836162888	1090.803037297149	49.784345122404	309.124903569302	1162.047111423173	126.953130479331	327.283486322828	1294.394362535006	97.910050884499	297.782658408184	759.909538135048	1120.571735215283	245.116501069172	712.890252816040	866.442706436617	238.203176569846	1105.726487055645	1110.366391895983	781.170818935988	1347.462050271843	1142.444661253309	706.392315808082	
20	47.881071428571	744.379125898705	1006.986420951533	527.932514746982	903.998465342274	1440.624854988948	352.389591632831	1024.498918196975	1358.761875339878	494.145473093390	965.929780422163	1422.566569919626	681.777332671013	924.794286217380	1492.573517001317	505.953465301284	977.135524071517	937.550849269169	623.564164326737	941.465551548058	960.861136748792	350.360082655516	980.362597045076	727.958785206350	595.211781371748	883.036067499248	631.385624495717	659.113682287007	944.212642400727	568.604768254108	577.080843482504	928.355002868422	482.926625020199	582.065122495071	1018.567753360747	777.141990451612	378.056153951751	969.262125909411	647.588537526829	302.217426175318	1073.447387801178	589.219135085731	361.325715158090	1100.418984306949	522.879887635660	358.065234264252	1082.933512760210	450.357196849920	348.930745702042	1013.798160483575	322.055736329299	298.711343585039	1099.022269480844	221.576616303307	353.374718134979	892.654373910685	397.092556648169	588.323143225853	811.266982834200	299.737981996252	648.231436840687	844.437902452049	202.557585830043	583.038173675904	699.571137638921	42.432848512976	548.677380510857	871.555197897382	97.143959780575	583.723340538017	783.294534453553	36.117583015415	623.334540044738	991.185943083096	45.278261125475	610.158736165360	1012.077223653405	44.494382336090	394.270239364031	1084.064438245480	47.215344582431	312.557184850163	1157.002798164925	122.493752120248	331.031816227108	1288.780242418581	90.123489557657	302.248716361390	756.177656678594	1121.271481670058	243.544784054102	707.032675798470	867.328625534387	238.090117047553	1107.958224758617	1111.724183501502	778.718891149091	1346.711000831885	1153.938215313811	701.522738279502	
21	47.894285714286	745.699126103661	1005.516565582014	525.795920110850	903.930550612282	1439.201723459377	349.561807373133	1024.496743025040	1357.996578005963	491.618507662524	965.437194306512	1421.995140959893	679.026259650368	924.399443203145	1491.480139269238	503.032874237486	978.229991309664	936.551570869148	621.952016167421	943.055163320836	959.337938200223	348.682838868764	980.682149892898	726.585695515704	593.673062897367	882.661107799121	630.458061299733	657.695301831002	943.200903133312	567.147065796229	575.592542586757	926.558248737145	481.273235878933	580.418913060442	1020.344081241063	775.303130277249	377.343402044206	970.186107692407	645.415115174538	302.670025120141	1074.144788850435	587.195929733869	362.046286053067	1100.029727780731	519.970514867570	359.413459766486	1081.768862400757	446.952242996766	350.427549747961	1010.728897943772	319.519813790240	300.702025437485	1094.074252144864	217.961417468751	356.108019913850	889.974718729654	395.819079293128	587.014155433145	807.843344041496	299.396287673671	647.540807441937	839.333903661421	201.782257208254	582.301138761961	692.949204500030	42.399840389404	548.715777473079	864.927390235014	96.949255772666	583.587838874638	776.644050540541	36.068220362883	623.353836037685	984.612133161746	44.832010169592	610.217516415302	1003.539647999592	43.498834559445	397.081241790717	1076.041682191566	44.574439856566	315.741988657978	1150.744195177783	117.740627339566	334.876975321020	1281.941093363891	81.922316524016	306.792968831981	753.305499081037	1121.440501320892	241.864635713161	702.461915242020	867.607174377426	237.753229337278	1109.786175212260	1112.842167367025	776.298541875713	1345.386547168199	1164.194207950284	696.877270628902	
